:SAMPLES-PER-SECOND 30
:FULLY-SPECIFIED
:DEGREES
1956
root  71.855 29.1192 -6.45502 -20.1808 76.9554 -22.2463
RightUpLeg  -47.5986 0.346195 -15.0579
RightLeg  72.7464 3.16352 10.4804
RightFoot  -24.2579 1.18354 11.8821
RightToes  7.56698e-010 0 -3.6325e-017
Spine  39.8101 1.79611 -6.26576
Spine1  -7.18282 -2.11273 13.4989
HEad  -54.2501 23.8137 -20.2395
LeftShoulder1  -0.0364281 3.81632 -3.67305
LeftArm  -120.055 -70.044 69.5284
LeftForeArm  -26.817 -14.628 0.320712
LeftHand  -0.276894 10.052 -5.58502
RightShoulder  -2.94896 -12.6009 25.8896
RightArm  -67.9247 68.1513 -24.7468
RightForeArm  91.8985 72.0474 28.6422
RightHand  -94.5967 80.6084 -104.077
LeftUpLeg  -48.1101 19.8365 18.2953
LeftLeg  80.0852 -0.694265 -3.03232
LeftFoot  -24.611 -0.834346 -8.43827
LeftToes  -2.88401e-009 5.30678e-011 -1.08654e-010
1957
root  71.8498 29.5486 -6.62259 -19.4556 76.7752 -22.3483
RightUpLeg  -47.2865 0.137017 -14.9906
RightLeg  70.3565 3.63098 10.4558
RightFoot  -23.1028 1.09962 12.1499
RightToes  7.56698e-010 0 -3.6325e-017
Spine  39.9979 1.85016 -5.75553
Spine1  -7.99935 -1.69545 12.7824
HEad  -42.4218 15.2356 -10.646
LeftShoulder1  -0.0205582 3.67352 -4.13186
LeftArm  -123.61 -69.6981 70.1767
LeftForeArm  -23.1043 -16.5424 -0.543404
LeftHand  -0.230541 9.14663 -5.31293
RightShoulder  -3.75305 -13.4726 31.1464
RightArm  -75.9564 67.0136 -35.3644
RightForeArm  -101.972 69.1272 30.0932
RightHand  132.83 -28.4815 163.567
LeftUpLeg  -48.143 19.8026 17.5315
LeftLeg  78.3297 -0.677562 -2.36366
LeftFoot  -23.7359 -0.794756 -8.60909
LeftToes  -2.88401e-009 5.30678e-011 -1.08654e-010
1958
root  71.8405 30.0097 -6.76779 -19.5509 76.7797 -22.8963
RightUpLeg  -46.4511 -0.15664 -14.7827
RightLeg  67.8811 4.01293 10.1124
RightFoot  -21.6895 0.92405 11.8044
RightToes  7.56698e-010 0 -3.6325e-017
Spine  39.9777 1.7431 -5.46133
Spine1  -8.17151 -1.63888 12.3918
HEad  -47.8664 17.9132 -14.2771
LeftShoulder1  -0.0334645 3.774 -4.3036
LeftArm  -122.491 -68.8043 69.5564
LeftForeArm  -22.0329 -18.3691 -2.33144
LeftHand  -0.201939 8.32416 -5.84988
RightShoulder  -4.47884 -13.8616 36.6194
RightArm  -91.3631 65.9551 -45.013
RightForeArm  -22.6866 64.0882 26.4905
RightHand  19.3017 48.9331 49.2929
LeftUpLeg  -47.7547 19.7026 16.9174
LeftLeg  76.4095 -0.646844 -1.81292
LeftFoot  -22.5488 -0.652336 -8.01762
LeftToes  -2.88401e-009 5.30678e-011 -1.08654e-010
1959
root  71.866 30.5002 -6.91919 -17.6052 76.8712 -21.4476
RightUpLeg  -45.5069 -0.321686 -15.1279
RightLeg  65.1415 4.48228 9.89204
RightFoot  -20.5815 0.858702 12.3255
RightToes  7.56698e-010 0 -3.6325e-017
Spine  39.559 2.08778 -6.02973
Spine1  -7.81533 -1.52717 12.919
HEad  -59.1521 22.4217 -23.7576
LeftShoulder1  -0.0762594 4.08485 -5.35329
LeftArm  -124.511 -68.4712 70.8332
LeftForeArm  -19.6484 -19.5478 -3.25983
LeftHand  -0.118689 6.77232 -5.75893
RightShoulder  -4.973 -13.6599 41.964
RightArm  -104.497 63.943 -65.0681
RightForeArm  -34.4887 55.5787 21.9056
RightHand  36.9605 51.1964 64.0312
LeftUpLeg  -47.1418 19.7553 15.7606
LeftLeg  74.1584 -0.615276 -1.35669
LeftFoot  -21.711 -0.560249 -7.60322
LeftToes  -2.88401e-009 5.30678e-011 -1.08654e-010
1960
root  71.8241 30.9719 -7.03786 -17.6342 77.1359 -21.9713
RightUpLeg  -44.5143 -0.581416 -15.0414
RightLeg  62.385 4.88897 9.54921
RightFoot  -19.4008 0.786213 12.9637
RightToes  7.56698e-010 0 -3.6325e-017
Spine  40.2898 2.40533 -6.22329
Spine1  -9.43458 -1.20547 13.7334
HEad  -51.7444 20.7481 -21.2193
LeftShoulder1  -0.0651878 3.98811 -5.49391
LeftArm  -123.619 -68.4255 68.5735
LeftForeArm  -17.8512 -21.328 -4.65004
LeftHand  0.0285884 4.0097 -4.29969
RightShoulder  -5.2316 -13.2483 46.2634
RightArm  -111.303 57.9553 -95.9509
RightForeArm  -67.769 23.6566 7.09676
RightHand  73.21 67.2595 94.0489
LeftUpLeg  -46.693 19.7652 15.0417
LeftLeg  71.8197 -0.648347 -1.26371
LeftFoot  -20.7777 -0.466124 -7.13909
LeftToes  -2.88401e-009 5.30678e-011 -1.08654e-010
1961
root  71.8043 31.4789 -7.17224 -18.0609 77.4439 -22.9521
RightUpLeg  -43.3969 -0.582377 -14.9304
RightLeg  59.3671 5.05947 8.70417
RightFoot  -17.8683 0.622685 13.024
RightToes  7.56698e-010 0 -3.6325e-017
Spine  40.4907 2.58445 -6.1418
Spine1  -10.0921 -1.03615 14.4233
HEad  -46.9851 18.8085 -18.879
LeftShoulder1  -0.0514818 4.0983 -0.390875
LeftArm  -116.38 -66.596 57.2582
LeftForeArm  -18.2943 -23.5405 -5.84466
LeftHand  -0.0303362 5.26668 -4.53396
RightShoulder  -5.20937 -12.2867 51.1141
RightArm  -106.681 53.1699 -103.976
RightForeArm  -81.6752 17.762 8.80989
RightHand  86.0816 68.6489 105.226
LeftUpLeg  -46.2213 19.8188 14.3077
LeftLeg  69.3089 -0.673634 -1.13838
LeftFoot  -19.6409 -0.332315 -6.20078
LeftToes  -2.88401e-009 5.30678e-011 -1.08654e-010
1962
root  71.7847 31.9165 -7.20952 -18.2655 78.021 -23.99
RightUpLeg  -42.6361 -0.728011 -14.8171
RightLeg  56.6626 5.04925 7.79006
RightFoot  -16.9967 0.577926 13.9642
RightToes  7.56698e-010 0 -3.6325e-017
Spine  40.02 2.3011 -5.65076
Spine1  -9.95767 -0.911567 12.6272
HEad  -51.0031 19.522 -19.5798
LeftShoulder1  -0.0801991 4.56704 1.10226
LeftArm  -119.152 -66.6812 58.1931
LeftForeArm  -17.5397 -25.5739 -6.34215
LeftHand  -0.08239 6.39256 -5.25544
RightShoulder  -4.93499 -11.2646 54.6852
RightArm  -102.725 50.7946 -101.278
RightForeArm  -84.5424 20.9565 8.03728
RightHand  80.4512 68.9483 99.3596
LeftUpLeg  -46.167 19.9153 13.5323
LeftLeg  66.8636 -0.792732 -1.29412
LeftFoot  -18.683 -0.25138 -5.66288
LeftToes  -2.88401e-009 5.30678e-011 -1.08654e-010
1963
root  71.7534 32.3198 -7.26508 -19.746 78.7376 -26.0479
RightUpLeg  -41.6211 -1.26965 -14.5803
RightLeg  54.1499 5.08304 7.13066
RightFoot  -15.9509 0.457827 14.0288
RightToes  7.56698e-010 0 -3.6325e-017
Spine  39.8644 2.25517 -5.41592
Spine1  -10.2576 -0.85804 12.8485
HEad  -52.9188 20.0162 -20.7776
LeftShoulder1  -0.103706 4.84827 0.893353
LeftArm  -119.163 -66.539 58.1544
LeftForeArm  -17.7805 -28.4087 -7.02694
LeftHand  -0.218592 8.18753 -5.84638
RightShoulder  -4.48343 -10.1464 57.7936
RightArm  -102.071 47.8415 -102.896
RightForeArm  -88.1042 20.8366 8.08043
RightHand  73.6992 69.1151 92.321
LeftUpLeg  -45.8524 19.6848 12.9418
LeftLeg  64.3587 -0.864379 -1.29381
LeftFoot  -18.127 -0.202301 -5.24382
LeftToes  -2.88401e-009 5.30678e-011 -1.08654e-010
